<mxfile host="65bd71144e">
    <diagram id="Z9NfkE0Gaz2DqiLAO_H8" name="ページ1">
        <mxGraphModel dx="718" dy="520" grid="1" gridSize="10" guides="1" tooltips="1" connect="1" arrows="1" fold="1" page="1" pageScale="1" pageWidth="827" pageHeight="1169" math="0" shadow="0">
            <root>
                <mxCell id="0"/>
                <mxCell id="1" parent="0"/>
                <mxCell id="2" value="" style="rounded=1;whiteSpace=wrap;html=1;arcSize=13;" parent="1" vertex="1">
                    <mxGeometry x="297" y="132" width="40" height="260" as="geometry"/>
                </mxCell>
                <mxCell id="5" value="" style="rounded=1;whiteSpace=wrap;html=1;arcSize=13;" parent="1" vertex="1">
                    <mxGeometry x="347" y="132" width="40" height="260" as="geometry"/>
                </mxCell>
                <mxCell id="6" value="" style="rounded=1;whiteSpace=wrap;html=1;arcSize=13;" parent="1" vertex="1">
                    <mxGeometry x="397" y="132" width="40" height="260" as="geometry"/>
                </mxCell>
                <mxCell id="7" value="" style="rounded=1;whiteSpace=wrap;html=1;arcSize=13;rotation=-90;shadow=1;sketch=1;fillColor=none;" parent="1" vertex="1">
                    <mxGeometry x="347" y="82" width="40" height="160" as="geometry"/>
                </mxCell>
                <mxCell id="8" value="" style="rounded=1;whiteSpace=wrap;html=1;arcSize=13;rotation=-90;shadow=1;sketch=1;fillColor=none;" parent="1" vertex="1">
                    <mxGeometry x="347" y="132" width="40" height="160" as="geometry"/>
                </mxCell>
                <mxCell id="9" value="" style="rounded=1;whiteSpace=wrap;html=1;arcSize=13;rotation=-90;shadow=1;sketch=1;fillColor=none;" parent="1" vertex="1">
                    <mxGeometry x="347" y="232" width="40" height="160" as="geometry"/>
                </mxCell>
                <mxCell id="10" value="" style="rounded=1;whiteSpace=wrap;html=1;arcSize=13;rotation=-90;shadow=1;sketch=1;fillColor=none;" parent="1" vertex="1">
                    <mxGeometry x="347" y="182" width="40" height="160" as="geometry"/>
                </mxCell>
                <mxCell id="11" value="" style="rounded=1;whiteSpace=wrap;html=1;arcSize=13;rotation=-90;shadow=1;sketch=1;fillColor=none;" parent="1" vertex="1">
                    <mxGeometry x="347" y="282" width="40" height="160" as="geometry"/>
                </mxCell>
                <mxCell id="12" value="" style="rounded=1;whiteSpace=wrap;html=1;arcSize=13;rotation=-90;shadow=1;sketch=1;fillColor=none;" parent="1" vertex="1">
                    <mxGeometry x="347" y="22" width="40" height="160" as="geometry"/>
                </mxCell>
                <mxCell id="13" value="" style="rounded=1;whiteSpace=wrap;html=1;arcSize=13;" parent="1" vertex="1">
                    <mxGeometry x="237" y="132" width="40" height="260" as="geometry"/>
                </mxCell>
                <mxCell id="14" value="&lt;font style=&quot;font-size: 28px&quot;&gt;c0&amp;nbsp; c1&amp;nbsp; c2&lt;/font&gt;" style="text;html=1;strokeColor=none;fillColor=none;align=center;verticalAlign=middle;whiteSpace=wrap;rounded=0;shadow=1;sketch=1;" parent="1" vertex="1">
                    <mxGeometry x="290" y="87" width="150" height="30" as="geometry"/>
                </mxCell>
                <mxCell id="15" value="&lt;font style=&quot;font-size: 20px&quot;&gt;r0&lt;br&gt;&lt;br&gt;r1&lt;br&gt;&lt;br&gt;r2&lt;br&gt;&lt;br&gt;r3&lt;br&gt;&lt;br&gt;r4&lt;br&gt;&lt;/font&gt;" style="text;html=1;strokeColor=none;fillColor=none;align=center;verticalAlign=middle;whiteSpace=wrap;rounded=0;shadow=1;sketch=1;" parent="1" vertex="1">
                    <mxGeometry x="242" y="138" width="30" height="248" as="geometry"/>
                </mxCell>
                <mxCell id="21" style="edgeStyle=none;html=1;entryX=0.5;entryY=1;entryDx=0;entryDy=0;fontSize=23;" parent="1" source="19" target="12" edge="1">
                    <mxGeometry relative="1" as="geometry"/>
                </mxCell>
                <mxCell id="19" value="&lt;font style=&quot;font-size: 23px&quot;&gt;df.columns&lt;/font&gt;" style="text;html=1;strokeColor=none;fillColor=none;align=center;verticalAlign=middle;whiteSpace=wrap;rounded=0;shadow=1;sketch=1;fontSize=28;" parent="1" vertex="1">
                    <mxGeometry x="530" y="87" width="130" height="30" as="geometry"/>
                </mxCell>
                <mxCell id="24" style="edgeStyle=none;html=1;entryX=0.5;entryY=0;entryDx=0;entryDy=0;fontSize=23;" parent="1" source="22" target="13" edge="1">
                    <mxGeometry relative="1" as="geometry"/>
                </mxCell>
                <mxCell id="22" value="df.index" style="text;html=1;strokeColor=none;fillColor=none;align=center;verticalAlign=middle;whiteSpace=wrap;rounded=0;shadow=1;sketch=1;fontSize=23;" parent="1" vertex="1">
                    <mxGeometry x="172" y="80.5" width="100" height="26" as="geometry"/>
                </mxCell>
                <mxCell id="26" value="&lt;font style=&quot;font-size: 28px&quot;&gt;c0&amp;nbsp; c1&amp;nbsp; c2&lt;/font&gt;" style="text;html=1;strokeColor=none;fillColor=none;align=center;verticalAlign=middle;whiteSpace=wrap;rounded=0;shadow=1;sketch=1;" parent="1" vertex="1">
                    <mxGeometry x="292" y="40" width="150" height="30" as="geometry"/>
                </mxCell>
                <mxCell id="27" value="&lt;font style=&quot;font-size: 20px&quot;&gt;r0&lt;br&gt;&lt;br&gt;r1&lt;br&gt;&lt;br&gt;r2&lt;br&gt;&lt;br&gt;r3&lt;br&gt;&lt;br&gt;r4&lt;br&gt;&lt;/font&gt;" style="text;html=1;strokeColor=none;fillColor=none;align=center;verticalAlign=middle;whiteSpace=wrap;rounded=0;shadow=1;sketch=1;" parent="1" vertex="1">
                    <mxGeometry x="200" y="138" width="30" height="248" as="geometry"/>
                </mxCell>
                <mxCell id="28" value="" style="ellipse;whiteSpace=wrap;html=1;aspect=fixed;shadow=1;sketch=1;fontSize=23;fillColor=none;" parent="1" vertex="1">
                    <mxGeometry x="242" y="342" width="30" height="30" as="geometry"/>
                </mxCell>
                <mxCell id="29" value="" style="ellipse;whiteSpace=wrap;html=1;aspect=fixed;shadow=1;sketch=1;fontSize=23;fillColor=none;" parent="1" vertex="1">
                    <mxGeometry x="242" y="297" width="30" height="30" as="geometry"/>
                </mxCell>
                <mxCell id="30" value="" style="ellipse;whiteSpace=wrap;html=1;aspect=fixed;shadow=1;sketch=1;fontSize=23;fillColor=none;" parent="1" vertex="1">
                    <mxGeometry x="242" y="247" width="30" height="30" as="geometry"/>
                </mxCell>
                <mxCell id="31" value="" style="ellipse;whiteSpace=wrap;html=1;aspect=fixed;shadow=1;sketch=1;fontSize=23;fillColor=none;" parent="1" vertex="1">
                    <mxGeometry x="242" y="197" width="30" height="30" as="geometry"/>
                </mxCell>
                <mxCell id="32" value="" style="ellipse;whiteSpace=wrap;html=1;aspect=fixed;shadow=1;sketch=1;fontSize=23;fillColor=none;" parent="1" vertex="1">
                    <mxGeometry x="242" y="152" width="30" height="30" as="geometry"/>
                </mxCell>
                <mxCell id="33" value="" style="ellipse;whiteSpace=wrap;html=1;aspect=fixed;shadow=1;sketch=1;fontSize=23;fillColor=none;" parent="1" vertex="1">
                    <mxGeometry x="297" y="80.5" width="43" height="43" as="geometry"/>
                </mxCell>
                <mxCell id="34" value="" style="ellipse;whiteSpace=wrap;html=1;aspect=fixed;shadow=1;sketch=1;fontSize=23;fillColor=none;" parent="1" vertex="1">
                    <mxGeometry x="343.5" y="82" width="43" height="43" as="geometry"/>
                </mxCell>
                <mxCell id="35" value="" style="ellipse;whiteSpace=wrap;html=1;aspect=fixed;shadow=1;sketch=1;fontSize=23;fillColor=none;" parent="1" vertex="1">
                    <mxGeometry x="387" y="82" width="43" height="43" as="geometry"/>
                </mxCell>
                <mxCell id="51" value="" style="edgeStyle=none;html=1;fontSize=23;entryX=0.5;entryY=1;entryDx=0;entryDy=0;" parent="1" source="45" target="5" edge="1">
                    <mxGeometry relative="1" as="geometry">
                        <mxPoint x="367" y="410" as="targetPoint"/>
                    </mxGeometry>
                </mxCell>
                <mxCell id="52" value="" style="endArrow=none;dashed=1;html=1;dashPattern=1 3;strokeWidth=2;fontSize=23;" parent="1" edge="1">
                    <mxGeometry width="50" height="50" relative="1" as="geometry">
                        <mxPoint x="190" y="190" as="sourcePoint"/>
                        <mxPoint x="480" y="190" as="targetPoint"/>
                    </mxGeometry>
                </mxCell>
                <mxCell id="53" value="" style="endArrow=none;dashed=1;html=1;dashPattern=1 3;strokeWidth=2;fontSize=23;" parent="1" edge="1">
                    <mxGeometry width="50" height="50" relative="1" as="geometry">
                        <mxPoint x="188" y="237" as="sourcePoint"/>
                        <mxPoint x="478" y="237" as="targetPoint"/>
                    </mxGeometry>
                </mxCell>
                <mxCell id="54" value="" style="endArrow=none;dashed=1;html=1;dashPattern=1 3;strokeWidth=2;fontSize=23;" parent="1" edge="1">
                    <mxGeometry width="50" height="50" relative="1" as="geometry">
                        <mxPoint x="191" y="286" as="sourcePoint"/>
                        <mxPoint x="481" y="286" as="targetPoint"/>
                    </mxGeometry>
                </mxCell>
                <mxCell id="55" value="" style="endArrow=none;dashed=1;html=1;dashPattern=1 3;strokeWidth=2;fontSize=23;" parent="1" edge="1">
                    <mxGeometry width="50" height="50" relative="1" as="geometry">
                        <mxPoint x="192" y="337" as="sourcePoint"/>
                        <mxPoint x="482" y="337" as="targetPoint"/>
                    </mxGeometry>
                </mxCell>
                <mxCell id="56" value="" style="endArrow=none;dashed=1;html=1;dashPattern=1 3;strokeWidth=2;fontSize=23;" parent="1" edge="1">
                    <mxGeometry width="50" height="50" relative="1" as="geometry">
                        <mxPoint x="191" y="140" as="sourcePoint"/>
                        <mxPoint x="481" y="140" as="targetPoint"/>
                    </mxGeometry>
                </mxCell>
                <mxCell id="57" value="&lt;font style=&quot;font-size: 20px&quot;&gt;s0&lt;br&gt;&lt;br&gt;s1&lt;br&gt;&lt;br&gt;s2&lt;br&gt;&lt;br&gt;s3&lt;br&gt;&lt;br&gt;s4&lt;br&gt;&lt;/font&gt;" style="text;html=1;strokeColor=none;fillColor=none;align=center;verticalAlign=middle;whiteSpace=wrap;rounded=0;shadow=1;sketch=1;" parent="1" vertex="1">
                    <mxGeometry x="160" y="110" width="30" height="248" as="geometry"/>
                </mxCell>
                <mxCell id="64" style="edgeStyle=none;html=1;entryX=0.5;entryY=1;entryDx=0;entryDy=0;fontSize=23;" parent="1" target="2" edge="1">
                    <mxGeometry relative="1" as="geometry">
                        <mxPoint x="343" y="437.29999999999995" as="targetPoint"/>
                        <mxPoint x="240" y="460" as="sourcePoint"/>
                    </mxGeometry>
                </mxCell>
                <mxCell id="65" style="edgeStyle=none;html=1;entryX=0.5;entryY=1;entryDx=0;entryDy=0;fontSize=23;" parent="1" source="61" target="6" edge="1">
                    <mxGeometry relative="1" as="geometry"/>
                </mxCell>
                <mxCell id="66" value="" style="shape=curlyBracket;whiteSpace=wrap;html=1;rounded=1;flipH=1;shadow=1;sketch=1;fontSize=23;fillColor=none;" parent="1" vertex="1">
                    <mxGeometry x="480" y="240" width="40" height="102" as="geometry"/>
                </mxCell>
                <mxCell id="67" value="df.iloc[ s2 : s4 ]" style="text;html=1;strokeColor=none;fillColor=none;align=center;verticalAlign=middle;whiteSpace=wrap;rounded=0;shadow=1;sketch=1;fontSize=23;" parent="1" vertex="1">
                    <mxGeometry x="530" y="277" width="180" height="30" as="geometry"/>
                </mxCell>
                <mxCell id="70" value="&lt;font color=&quot;#ff3399&quot;&gt;&amp;lt;pd.DataFrame&amp;gt;&lt;/font&gt;" style="text;html=1;strokeColor=none;fillColor=none;align=center;verticalAlign=middle;whiteSpace=wrap;rounded=0;shadow=1;sketch=1;fontSize=23;" parent="1" vertex="1">
                    <mxGeometry x="502.5" y="10" width="185" height="30" as="geometry"/>
                </mxCell>
                <mxCell id="71" value="&lt;font color=&quot;#ff3399&quot;&gt;&amp;lt;pd.DataFrame&amp;gt;&lt;/font&gt;" style="text;html=1;strokeColor=none;fillColor=none;align=center;verticalAlign=middle;whiteSpace=wrap;rounded=0;shadow=1;sketch=1;fontSize=23;" parent="1" vertex="1">
                    <mxGeometry x="180" y="500" width="185" height="30" as="geometry"/>
                </mxCell>
                <mxCell id="73" style="edgeStyle=none;html=1;entryX=0.5;entryY=1;entryDx=0;entryDy=0;" parent="1" source="72" target="8" edge="1">
                    <mxGeometry relative="1" as="geometry"/>
                </mxCell>
                <mxCell id="72" value="df.iloc[ r1 ]" style="text;html=1;strokeColor=none;fillColor=none;align=center;verticalAlign=middle;whiteSpace=wrap;rounded=0;shadow=1;sketch=1;fontSize=23;" parent="1" vertex="1">
                    <mxGeometry x="540" y="197" width="160" height="30" as="geometry"/>
                </mxCell>
                <mxCell id="77" value="&lt;font color=&quot;#66b2ff&quot;&gt;&amp;lt;pd.Series&amp;gt;&lt;/font&gt;" style="text;html=1;strokeColor=none;fillColor=none;align=center;verticalAlign=middle;whiteSpace=wrap;rounded=0;shadow=1;sketch=1;fontSize=23;" parent="1" vertex="1">
                    <mxGeometry x="550" y="219" width="140" height="30" as="geometry"/>
                </mxCell>
                <mxCell id="78" value="&lt;font color=&quot;#ff3399&quot;&gt;&amp;lt;pd.DataFrame&amp;gt;&lt;/font&gt;" style="text;html=1;strokeColor=none;fillColor=none;align=center;verticalAlign=middle;whiteSpace=wrap;rounded=0;shadow=1;sketch=1;fontSize=23;" parent="1" vertex="1">
                    <mxGeometry x="540" y="307" width="185" height="30" as="geometry"/>
                </mxCell>
                <mxCell id="81" style="edgeStyle=none;html=1;entryX=0.25;entryY=1;entryDx=0;entryDy=0;" parent="1" source="79" target="8" edge="1">
                    <mxGeometry relative="1" as="geometry"/>
                </mxCell>
                <mxCell id="82" style="edgeStyle=none;html=1;entryX=0.5;entryY=1;entryDx=0;entryDy=0;" parent="1" source="79" target="9" edge="1">
                    <mxGeometry relative="1" as="geometry"/>
                </mxCell>
                <mxCell id="79" value="df.iloc[ [ r1 , r3 ] ]" style="text;html=1;strokeColor=none;fillColor=none;align=center;verticalAlign=middle;whiteSpace=wrap;rounded=0;shadow=1;sketch=1;fontSize=23;" parent="1" vertex="1">
                    <mxGeometry x="535.5" y="362" width="180" height="30" as="geometry"/>
                </mxCell>
                <mxCell id="80" value="&lt;font color=&quot;#ff3399&quot;&gt;&amp;lt;pd.DataFrame&amp;gt;&lt;/font&gt;" style="text;html=1;strokeColor=none;fillColor=none;align=center;verticalAlign=middle;whiteSpace=wrap;rounded=0;shadow=1;sketch=1;fontSize=23;" parent="1" vertex="1">
                    <mxGeometry x="532.5" y="392" width="185" height="30" as="geometry"/>
                </mxCell>
                <mxCell id="85" value="" style="shape=curlyBracket;whiteSpace=wrap;html=1;rounded=1;flipH=1;rotation=90;" parent="1" vertex="1">
                    <mxGeometry x="315" y="375" width="50" height="100" as="geometry"/>
                </mxCell>
                <mxCell id="90" value="&lt;font color=&quot;#ff3399&quot;&gt;&amp;lt;pd.DataFrame&amp;gt;&lt;/font&gt;" style="text;html=1;strokeColor=none;fillColor=none;align=center;verticalAlign=middle;whiteSpace=wrap;rounded=0;shadow=1;sketch=1;fontSize=23;" parent="1" vertex="1">
                    <mxGeometry x="186" y="587" width="185" height="30" as="geometry"/>
                </mxCell>
                <mxCell id="91" style="edgeStyle=none;html=1;entryX=0.1;entryY=0.5;entryDx=0;entryDy=0;fontSize=23;entryPerimeter=0;exitX=0.568;exitY=-0.075;exitDx=0;exitDy=0;exitPerimeter=0;" parent="1" source="88" target="85" edge="1">
                    <mxGeometry relative="1" as="geometry">
                        <mxPoint x="327" y="402" as="targetPoint"/>
                        <mxPoint x="250" y="470" as="sourcePoint"/>
                    </mxGeometry>
                </mxCell>
                <mxCell id="45" value="df.iloc[ : , c1 ]" style="text;html=1;strokeColor=none;fillColor=none;align=center;verticalAlign=middle;whiteSpace=wrap;rounded=0;shadow=1;sketch=1;fontSize=23;movable=1;resizable=1;rotatable=1;deletable=1;editable=1;connectable=1;" parent="1" vertex="1">
                    <mxGeometry x="371" y="445" width="220" height="30" as="geometry"/>
                </mxCell>
                <mxCell id="61" value="df.iloc[ : , [&amp;nbsp; c0 ,&amp;nbsp; c2&amp;nbsp; &amp;nbsp;] ]" style="text;html=1;strokeColor=none;fillColor=none;align=center;verticalAlign=middle;whiteSpace=wrap;rounded=0;shadow=1;sketch=1;fontSize=23;movable=1;resizable=1;rotatable=1;deletable=1;editable=1;connectable=1;" parent="1" vertex="1">
                    <mxGeometry x="70" y="460" width="257" height="30" as="geometry"/>
                </mxCell>
                <mxCell id="69" value="&lt;font color=&quot;#66b2ff&quot;&gt;&amp;lt;pd.Series&amp;gt;&lt;/font&gt;" style="text;html=1;strokeColor=none;fillColor=none;align=center;verticalAlign=middle;whiteSpace=wrap;rounded=0;shadow=1;sketch=1;fontSize=23;" parent="1" vertex="1">
                    <mxGeometry x="590.3892307692308" y="442" width="59.23076923076923" height="30" as="geometry"/>
                </mxCell>
                <mxCell id="88" value="df.iloc[ : , s0 :&amp;nbsp; s2 ]" style="text;html=1;strokeColor=none;fillColor=none;align=center;verticalAlign=middle;whiteSpace=wrap;rounded=0;shadow=1;sketch=1;fontSize=23;movable=1;resizable=1;rotatable=1;deletable=1;editable=1;connectable=1;" parent="1" vertex="1">
                    <mxGeometry x="80" y="560" width="257" height="30" as="geometry"/>
                </mxCell>
                <mxCell id="92" value="" style="rounded=1;whiteSpace=wrap;html=1;fontSize=18;" vertex="1" parent="1">
                    <mxGeometry x="273" y="645" width="40" height="260" as="geometry"/>
                </mxCell>
                <mxCell id="93" value="" style="rounded=1;whiteSpace=wrap;html=1;arcSize=13;" vertex="1" parent="1">
                    <mxGeometry x="223" y="645" width="40" height="260" as="geometry"/>
                </mxCell>
                <mxCell id="94" value="&lt;font style=&quot;font-size: 20px&quot;&gt;r0&lt;br&gt;&lt;br&gt;r1&lt;br&gt;&lt;br&gt;r2&lt;br&gt;&lt;br&gt;r3&lt;br&gt;&lt;br&gt;r4&lt;br&gt;&lt;/font&gt;" style="text;html=1;strokeColor=none;fillColor=none;align=center;verticalAlign=middle;whiteSpace=wrap;rounded=0;shadow=1;sketch=1;" vertex="1" parent="1">
                    <mxGeometry x="228" y="651" width="30" height="248" as="geometry"/>
                </mxCell>
                <mxCell id="95" value="" style="ellipse;whiteSpace=wrap;html=1;aspect=fixed;shadow=1;sketch=1;fontSize=23;fillColor=none;" vertex="1" parent="1">
                    <mxGeometry x="228" y="855" width="30" height="30" as="geometry"/>
                </mxCell>
                <mxCell id="96" value="" style="ellipse;whiteSpace=wrap;html=1;aspect=fixed;shadow=1;sketch=1;fontSize=23;fillColor=none;" vertex="1" parent="1">
                    <mxGeometry x="228" y="810" width="30" height="30" as="geometry"/>
                </mxCell>
                <mxCell id="97" value="" style="ellipse;whiteSpace=wrap;html=1;aspect=fixed;shadow=1;sketch=1;fontSize=23;fillColor=none;" vertex="1" parent="1">
                    <mxGeometry x="228" y="760" width="30" height="30" as="geometry"/>
                </mxCell>
                <mxCell id="98" value="" style="ellipse;whiteSpace=wrap;html=1;aspect=fixed;shadow=1;sketch=1;fontSize=23;fillColor=none;" vertex="1" parent="1">
                    <mxGeometry x="228" y="710" width="30" height="30" as="geometry"/>
                </mxCell>
                <mxCell id="99" value="" style="ellipse;whiteSpace=wrap;html=1;aspect=fixed;shadow=1;sketch=1;fontSize=23;fillColor=none;" vertex="1" parent="1">
                    <mxGeometry x="228" y="665" width="30" height="30" as="geometry"/>
                </mxCell>
                <mxCell id="100" value="&lt;span style=&quot;font-size: 32px&quot;&gt;&lt;b&gt;ds&lt;/b&gt;&lt;/span&gt;" style="text;html=1;strokeColor=none;fillColor=none;align=center;verticalAlign=middle;whiteSpace=wrap;rounded=0;fontSize=18;" vertex="1" parent="1">
                    <mxGeometry x="53" y="625" width="60" height="30" as="geometry"/>
                </mxCell>
                <mxCell id="101" value="&lt;font color=&quot;#ff3399&quot;&gt;&amp;lt;pd.Series&amp;gt;&lt;/font&gt;" style="text;html=1;strokeColor=none;fillColor=none;align=center;verticalAlign=middle;whiteSpace=wrap;rounded=0;shadow=1;sketch=1;fontSize=23;" vertex="1" parent="1">
                    <mxGeometry x="25" y="655" width="120" height="30" as="geometry"/>
                </mxCell>
                <mxCell id="102" value="&lt;font style=&quot;font-size: 20px&quot;&gt;s0&lt;br&gt;&lt;br&gt;s1&lt;br&gt;&lt;br&gt;s2&lt;br&gt;&lt;br&gt;s3&lt;br&gt;&lt;br&gt;s4&lt;br&gt;&lt;/font&gt;" style="text;html=1;strokeColor=none;fillColor=none;align=center;verticalAlign=middle;whiteSpace=wrap;rounded=0;shadow=1;sketch=1;" vertex="1" parent="1">
                    <mxGeometry x="133" y="625" width="30" height="248" as="geometry"/>
                </mxCell>
                <mxCell id="103" value="" style="endArrow=none;dashed=1;html=1;dashPattern=1 3;strokeWidth=2;fontSize=23;" edge="1" parent="1">
                    <mxGeometry width="50" height="50" relative="1" as="geometry">
                        <mxPoint x="163" y="703" as="sourcePoint"/>
                        <mxPoint x="333" y="703" as="targetPoint"/>
                    </mxGeometry>
                </mxCell>
                <mxCell id="104" value="" style="endArrow=none;dashed=1;html=1;dashPattern=1 3;strokeWidth=2;fontSize=23;" edge="1" parent="1">
                    <mxGeometry width="50" height="50" relative="1" as="geometry">
                        <mxPoint x="163" y="751" as="sourcePoint"/>
                        <mxPoint x="333" y="751" as="targetPoint"/>
                    </mxGeometry>
                </mxCell>
                <mxCell id="105" value="" style="endArrow=none;dashed=1;html=1;dashPattern=1 3;strokeWidth=2;fontSize=23;" edge="1" parent="1">
                    <mxGeometry width="50" height="50" relative="1" as="geometry">
                        <mxPoint x="163" y="847" as="sourcePoint"/>
                        <mxPoint x="333" y="847" as="targetPoint"/>
                    </mxGeometry>
                </mxCell>
                <mxCell id="106" value="" style="endArrow=none;dashed=1;html=1;dashPattern=1 3;strokeWidth=2;fontSize=23;" edge="1" parent="1">
                    <mxGeometry width="50" height="50" relative="1" as="geometry">
                        <mxPoint x="163" y="655" as="sourcePoint"/>
                        <mxPoint x="333" y="655" as="targetPoint"/>
                    </mxGeometry>
                </mxCell>
                <mxCell id="107" value="&lt;font style=&quot;font-size: 20px&quot;&gt;r0&lt;br&gt;&lt;br&gt;r1&lt;br&gt;&lt;br&gt;r2&lt;br&gt;&lt;br&gt;r3&lt;br&gt;&lt;br&gt;r4&lt;br&gt;&lt;/font&gt;" style="text;html=1;strokeColor=none;fillColor=none;align=center;verticalAlign=middle;whiteSpace=wrap;rounded=0;shadow=1;sketch=1;" vertex="1" parent="1">
                    <mxGeometry x="185" y="651" width="30" height="248" as="geometry"/>
                </mxCell>
                <mxCell id="108" value="" style="endArrow=none;dashed=1;html=1;dashPattern=1 3;strokeWidth=2;fontSize=23;" edge="1" parent="1">
                    <mxGeometry width="50" height="50" relative="1" as="geometry">
                        <mxPoint x="163" y="801" as="sourcePoint"/>
                        <mxPoint x="333" y="801" as="targetPoint"/>
                    </mxGeometry>
                </mxCell>
                <mxCell id="118" value="" style="shape=curlyBracket;whiteSpace=wrap;html=1;rounded=1;flipH=1;shadow=1;sketch=1;fontSize=23;fontColor=#66B2FF;fillColor=none;" vertex="1" parent="1">
                    <mxGeometry x="320" y="646" width="20" height="114" as="geometry"/>
                </mxCell>
                <mxCell id="119" style="edgeStyle=none;html=1;fontSize=23;fontColor=#66B2FF;" edge="1" parent="1">
                    <mxGeometry relative="1" as="geometry">
                        <mxPoint x="343" y="703" as="targetPoint"/>
                        <mxPoint x="443" y="703" as="sourcePoint"/>
                    </mxGeometry>
                </mxCell>
                <mxCell id="123" value="ds.iloc[ s0 : s2 ]" style="text;html=1;strokeColor=none;fillColor=none;align=center;verticalAlign=middle;whiteSpace=wrap;rounded=0;shadow=1;sketch=1;fontSize=23;" vertex="1" parent="1">
                    <mxGeometry x="448" y="686" width="162" height="30" as="geometry"/>
                </mxCell>
                <mxCell id="124" value="&lt;font color=&quot;#ff3399&quot;&gt;&amp;lt;pd.Series&amp;gt;&lt;/font&gt;" style="text;html=1;strokeColor=none;fillColor=none;align=center;verticalAlign=middle;whiteSpace=wrap;rounded=0;shadow=1;sketch=1;fontSize=23;" vertex="1" parent="1">
                    <mxGeometry x="521.75" y="720" width="146.5" height="30" as="geometry"/>
                </mxCell>
                <mxCell id="125" style="edgeStyle=none;html=1;entryX=0.975;entryY=0.312;entryDx=0;entryDy=0;entryPerimeter=0;fontSize=23;fontColor=#66B2FF;" edge="1" parent="1" source="127" target="92">
                    <mxGeometry relative="1" as="geometry"/>
                </mxCell>
                <mxCell id="126" style="edgeStyle=none;html=1;entryX=1.1;entryY=0.681;entryDx=0;entryDy=0;entryPerimeter=0;fontSize=23;fontColor=#66B2FF;" edge="1" parent="1" source="127" target="92">
                    <mxGeometry relative="1" as="geometry"/>
                </mxCell>
                <mxCell id="127" value="ds.ilo [ [&amp;nbsp; r1 , r3 ] ]" style="text;html=1;strokeColor=none;fillColor=none;align=center;verticalAlign=middle;whiteSpace=wrap;rounded=0;shadow=1;sketch=1;fontSize=23;" vertex="1" parent="1">
                    <mxGeometry x="380" y="972" width="171" height="30" as="geometry"/>
                </mxCell>
                <mxCell id="131" value="&lt;font color=&quot;#ff3399&quot;&gt;&amp;lt;pd.Series&amp;gt;&lt;/font&gt;" style="text;html=1;strokeColor=none;fillColor=none;align=center;verticalAlign=middle;whiteSpace=wrap;rounded=0;shadow=1;sketch=1;fontSize=23;" vertex="1" parent="1">
                    <mxGeometry x="543" y="961" width="146.5" height="30" as="geometry"/>
                </mxCell>
            </root>
        </mxGraphModel>
    </diagram>
</mxfile>
